<svg width="225" height="34" viewBox="0 0 225 34" fill="none" xmlns="http://www.w3.org/2000/svg">
<path d="M55.6431 28.3053C53.9631 28.3053 52.4131 28.0353 50.9931 27.4953C49.5731 26.9553 48.3331 26.1953 47.2731 25.2153C46.2331 24.2153 45.4231 23.0553 44.8431 21.7353C44.2631 20.4153 43.9731 18.9653 43.9731 17.3853C43.9731 15.8053 44.2631 14.3553 44.8431 13.0353C45.4231 11.7153 46.2331 10.5653 47.2731 9.58525C48.3331 8.58525 49.5731 7.81525 50.9931 7.27525C52.4131 6.73525 53.9631 6.46525 55.6431 6.46525C57.3431 6.46525 58.8931 6.73525 60.2931 7.27525C61.7131 7.81525 62.9431 8.58525 63.9831 9.58525C65.0231 10.5653 65.8331 11.7153 66.4131 13.0353C67.0131 14.3553 67.3131 15.8053 67.3131 17.3853C67.3131 18.9653 67.0131 20.4253 66.4131 21.7653C65.8331 23.0853 65.0231 24.2353 63.9831 25.2153C62.9431 26.1953 61.7131 26.9553 60.2931 27.4953C58.8931 28.0353 57.3431 28.3053 55.6431 28.3053ZM55.6431 23.3853C56.4431 23.3853 57.1831 23.2453 57.8631 22.9653C58.5631 22.6853 59.1631 22.2853 59.6631 21.7653C60.1831 21.2253 60.5831 20.5853 60.8631 19.8453C61.1631 19.1053 61.3131 18.2853 61.3131 17.3853C61.3131 16.4653 61.1631 15.6453 60.8631 14.9253C60.5831 14.1853 60.1831 13.5553 59.6631 13.0353C59.1631 12.4953 58.5631 12.0853 57.8631 11.8053C57.1831 11.5253 56.4431 11.3853 55.6431 11.3853C54.8431 11.3853 54.0931 11.5253 53.3931 11.8053C52.7131 12.0853 52.1131 12.4953 51.5931 13.0353C51.0931 13.5553 50.6931 14.1853 50.3931 14.9253C50.1131 15.6453 49.9731 16.4653 49.9731 17.3853C49.9731 18.2853 50.1131 19.1053 50.3931 19.8453C50.6931 20.5853 51.0931 21.2253 51.5931 21.7653C52.1131 22.2853 52.7131 22.6853 53.3931 22.9653C54.0931 23.2453 54.8431 23.3853 55.6431 23.3853ZM73.7242 27.8853V6.88525H83.3242C85.2442 6.88525 86.8942 7.19525 88.2742 7.81525C89.6742 8.43525 90.7542 9.33525 91.5142 10.5153C92.2742 11.6753 92.6542 13.0553 92.6542 14.6553C92.6542 16.2353 92.2742 17.6053 91.5142 18.7653C90.7542 19.9253 89.6742 20.8253 88.2742 21.4653C86.8942 22.0853 85.2442 22.3953 83.3242 22.3953H77.0242L79.6642 19.8153V27.8853H73.7242ZM79.6642 20.4453L77.0242 17.7153H82.9642C84.2042 17.7153 85.1242 17.4453 85.7242 16.9053C86.3442 16.3653 86.6542 15.6153 86.6542 14.6553C86.6542 13.6753 86.3442 12.9153 85.7242 12.3753C85.1242 11.8353 84.2042 11.5653 82.9642 11.5653H77.0242L79.6642 8.83525V20.4453ZM106.523 28.3053C104.803 28.3053 103.143 28.0953 101.543 27.6753C99.9634 27.2353 98.6734 26.6753 97.6734 25.9953L99.6234 21.6153C100.563 22.2153 101.643 22.7153 102.863 23.1153C104.103 23.4953 105.333 23.6853 106.553 23.6853C107.373 23.6853 108.033 23.6153 108.533 23.4753C109.033 23.3153 109.393 23.1153 109.613 22.8753C109.853 22.6153 109.973 22.3153 109.973 21.9753C109.973 21.4953 109.753 21.1153 109.313 20.8353C108.873 20.5553 108.303 20.3253 107.603 20.1453C106.903 19.9653 106.123 19.7853 105.263 19.6053C104.423 19.4253 103.573 19.1953 102.713 18.9153C101.873 18.6353 101.103 18.2753 100.403 17.8353C99.7034 17.3753 99.1334 16.7853 98.6934 16.0653C98.2534 15.3253 98.0334 14.3953 98.0334 13.2753C98.0334 12.0153 98.3734 10.8753 99.0534 9.85525C99.7534 8.83525 100.793 8.01525 102.173 7.39525C103.553 6.77525 105.273 6.46525 107.333 6.46525C108.713 6.46525 110.063 6.62525 111.383 6.94525C112.723 7.24525 113.913 7.69525 114.953 8.29525L113.123 12.7053C112.123 12.1653 111.133 11.7653 110.153 11.5053C109.173 11.2253 108.223 11.0853 107.303 11.0853C106.483 11.0853 105.823 11.1753 105.323 11.3553C104.823 11.5153 104.463 11.7353 104.243 12.0153C104.023 12.2953 103.913 12.6153 103.913 12.9753C103.913 13.4353 104.123 13.8053 104.543 14.0853C104.983 14.3453 105.553 14.5653 106.253 14.7453C106.973 14.9053 107.753 15.0753 108.593 15.2553C109.453 15.4353 110.303 15.6653 111.143 15.9453C112.003 16.2053 112.783 16.5653 113.483 17.0253C114.183 17.4653 114.743 18.0553 115.163 18.7953C115.603 19.5153 115.823 20.4253 115.823 21.5253C115.823 22.7453 115.473 23.8753 114.773 24.9153C114.093 25.9353 113.063 26.7553 111.683 27.3753C110.323 27.9953 108.603 28.3053 106.523 28.3053ZM121.867 27.8853V6.88525H131.467C133.387 6.88525 135.037 7.19525 136.417 7.81525C137.817 8.43525 138.897 9.33525 139.657 10.5153C140.417 11.6753 140.797 13.0553 140.797 14.6553C140.797 16.2353 140.417 17.6053 139.657 18.7653C138.897 19.9253 137.817 20.8253 136.417 21.4653C135.037 22.0853 133.387 22.3953 131.467 22.3953H125.167L127.807 19.8153V27.8853H121.867ZM127.807 20.4453L125.167 17.7153H131.107C132.347 17.7153 133.267 17.4453 133.867 16.9053C134.487 16.3653 134.797 15.6153 134.797 14.6553C134.797 13.6753 134.487 12.9153 133.867 12.3753C133.267 11.8353 132.347 11.5653 131.107 11.5653H125.167L127.807 8.83525V20.4453ZM157.876 28.3053C156.196 28.3053 154.646 28.0353 153.226 27.4953C151.806 26.9553 150.566 26.1953 149.506 25.2153C148.466 24.2153 147.656 23.0553 147.076 21.7353C146.496 20.4153 146.206 18.9653 146.206 17.3853C146.206 15.8053 146.496 14.3553 147.076 13.0353C147.656 11.7153 148.466 10.5653 149.506 9.58525C150.566 8.58525 151.806 7.81525 153.226 7.27525C154.646 6.73525 156.196 6.46525 157.876 6.46525C159.576 6.46525 161.126 6.73525 162.526 7.27525C163.946 7.81525 165.176 8.58525 166.216 9.58525C167.256 10.5653 168.066 11.7153 168.646 13.0353C169.246 14.3553 169.546 15.8053 169.546 17.3853C169.546 18.9653 169.246 20.4253 168.646 21.7653C168.066 23.0853 167.256 24.2353 166.216 25.2153C165.176 26.1953 163.946 26.9553 162.526 27.4953C161.126 28.0353 159.576 28.3053 157.876 28.3053ZM157.876 23.3853C158.676 23.3853 159.416 23.2453 160.096 22.9653C160.796 22.6853 161.396 22.2853 161.896 21.7653C162.416 21.2253 162.816 20.5853 163.096 19.8453C163.396 19.1053 163.546 18.2853 163.546 17.3853C163.546 16.4653 163.396 15.6453 163.096 14.9253C162.816 14.1853 162.416 13.5553 161.896 13.0353C161.396 12.4953 160.796 12.0853 160.096 11.8053C159.416 11.5253 158.676 11.3853 157.876 11.3853C157.076 11.3853 156.326 11.5253 155.626 11.8053C154.946 12.0853 154.346 12.4953 153.826 13.0353C153.326 13.5553 152.926 14.1853 152.626 14.9253C152.346 15.6453 152.206 16.4653 152.206 17.3853C152.206 18.2853 152.346 19.1053 152.626 19.8453C152.926 20.5853 153.326 21.2253 153.826 21.7653C154.346 22.2853 154.946 22.6853 155.626 22.9653C156.326 23.2453 157.076 23.3853 157.876 23.3853ZM180.134 27.8853V11.5953H173.684V6.88525H192.494V11.5953H186.074V27.8853H180.134Z" fill="white"/>
<rect width="12.9971" height="22.9276" transform="matrix(0.966144 0.258004 -0.259637 0.965706 17.9531 0.898682)" fill="#5177FC"/>
<rect width="12.9971" height="22.9276" transform="matrix(0.966144 0.258003 -0.259637 0.965706 5.95312 7.87549)" fill="#FF511B"/>
<path d="M24.4527 26.3126L14.9527 23.821L18.4526 11.3632L24.4527 26.3126Z" fill="#2D48AB"/>
</svg>
